/* XPM */
static char *_1b25966aa6f42cbb2eb55ab2e209bad[] = {
/* columns rows colors chars-per-pixel */
"64 64 204 2 ",
"   c #000000",
".  c #0B0A06",
"X  c #080603",
"o  c #120F08",
"O  c #100C07",
"+  c #1A150D",
"@  c #16120B",
"#  c #1E1A12",
"$  c #241D12",
"%  c #251E19",
"&  c #201A0F",
"*  c #2C2415",
"=  c #2C241B",
"-  c #262015",
";  c #342A1A",
":  c #392D1B",
">  c #312717",
",  c #3C311C",
"<  c #352B22",
"1  c #392E25",
"2  c #3C3123",
"3  c #3E3228",
"4  c #42351E",
"5  c #463524",
"6  c #463922",
"7  c #4B3D23",
"8  c #45392A",
"9  c #4C3D2B",
"0  c #433528",
"q  c #533F31",
"w  c #513F2B",
"e  c #4E4127",
"r  c #534327",
"t  c #54442B",
"y  c #5C4B2C",
"u  c #5B462C",
"i  c #4F4131",
"p  c #544431",
"a  c #5D4A34",
"s  c #594634",
"d  c #634E3A",
"f  c #624F33",
"g  c #655334",
"h  c #6A5533",
"j  c #6C5935",
"k  c #6B563B",
"l  c #6A573A",
"z  c #745D36",
"x  c #725D3B",
"c  c #765B39",
"v  c #634F2F",
"b  c #7C643C",
"n  c #75613C",
"m  c #6E5741",
"M  c #7B6344",
"N  c #7B6644",
"B  c #836A3E",
"V  c #84673D",
"C  c #846B43",
"Z  c #846D4A",
"A  c #886D45",
"S  c #8B7144",
"D  c #8C724B",
"F  c #867049",
"G  c #927545",
"H  c #92764C",
"J  c #95794B",
"K  c #9A7C4D",
"L  c #967847",
"P  c #8C7451",
"I  c #947B53",
"U  c #9A7D53",
"Y  c #947B55",
"T  c #906E43",
"R  c #A17F50",
"E  c #A67F4E",
"W  c #9D814D",
"Q  c #9E8255",
"!  c #9D835B",
"~  c #A4844E",
"^  c #A9864F",
"/  c #A38453",
"(  c #AB8553",
")  c #A68954",
"_  c #AC8C54",
"`  c #A38559",
"'  c #A58A5C",
"]  c #AB8C5B",
"[  c #A98759",
"{  c #B38D54",
"}  c #B28D5A",
"|  c #B48B52",
" . c #AF905B",
".. c #AF9056",
"X. c #B39255",
"o. c #B99356",
"O. c #B3935C",
"+. c #BA955C",
"@. c #BC9A5C",
"#. c #9C8661",
"$. c #A48B63",
"%. c #AA8D61",
"&. c #AE9162",
"*. c #AD956A",
"=. c #B39463",
"-. c #B99661",
";. c #BC9B64",
":. c #B29669",
">. c #B5996A",
",. c #BB9C6A",
"<. c #B79966",
"1. c #BA9F71",
"2. c #BFA06B",
"3. c #BDA272",
"4. c #B7A076",
"5. c #C29C5C",
"6. c #C19659",
"7. c #C5A15F",
"8. c #C9A25E",
"9. c #C19D63",
"0. c #C29F6A",
"q. c #C5A264",
"w. c #CBA563",
"e. c #CEA965",
"r. c #C4A46B",
"t. c #CAA66A",
"y. c #CDAA6C",
"u. c #D3AC66",
"i. c #D3AD6B",
"p. c #D5AB68",
"a. c #D6B06E",
"s. c #DCB46D",
"d. c #DFB86F",
"f. c #C3A573",
"g. c #C6A873",
"h. c #CCAC73",
"j. c #CBAE79",
"k. c #C6AA77",
"l. c #D2AE72",
"z. c #CEB17C",
"x. c #CEB077",
"c. c #D5B273",
"v. c #DCB672",
"b. c #DEB873",
"n. c #D4B47B",
"m. c #DAB779",
"M. c #DCBA7B",
"N. c #D7B87F",
"B. c #E0B76F",
"V. c #E1B86F",
"C. c #E0B771",
"Z. c #E2BB74",
"A. c #E3BE7A",
"S. c #E8BF73",
"D. c #E9C075",
"F. c #E6C17D",
"G. c #E9C37D",
"H. c #EFC97D",
"J. c #F0C57A",
"K. c #D3B784",
"L. c #D6B883",
"P. c #DBBC83",
"I. c #D6BB89",
"U. c #D9BF90",
"Y. c #E1BF82",
"T. c #DDC08A",
"R. c #D8C093",
"E. c #E5C383",
"W. c #EAC582",
"Q. c #EDC985",
"!. c #E3C58B",
"~. c #EDCA8A",
"^. c #E9C789",
"/. c #F3CC85",
"(. c #F2CD8B",
"). c #F4D18E",
"_. c #FAD28B",
"`. c #ECCD93",
"'. c #E5C891",
"]. c #F1CF92",
"[. c #EDD098",
"{. c #F4D293",
"}. c #F9D696",
"|. c #F4D59B",
" X c #FBDB9C",
".X c #F9D899",
"XX c #F6D9A2",
"oX c #FBDDA3",
"OX c #FBDEAB",
"+X c #F4DAAA",
"@X c #F6DEB3",
"#X c #E8D1A6",
"$X c #FCE1A9",
"%X c #FCE2B4",
"&X c #FBE4BA",
"*X c #FEE8BF",
"=X c #FBE7C1",
"-X c #FDE8C3",
";X c #FAEACC",
":X c #FCEED4",
">X c #FEF1DA",
",X c #EEE1C7",
"<X c #FDF5E9",
"1X c None",
/* pixels */
"1X1X1X1X1X1X1X1X1X1X1X1X1X1X1X1X1X1X1X1X1X1X1X1X1X1X1X9 q s d a s s i 3 1 1X1X1X1X1X1X1X1X1X1X1X1X1X1X1X1X1X1X1X1X1X1X1X1X1X1X1X",
"1X1X1X1X1X1X1X1X1X1X1X1X1X1X1X1X1X1X1X1X1X1X1Xq k Z $.,.t.c.m.P.M.c.h.,.&.U C a 0 1X1X1X1X1X1X1X1X1X1X1X1X1X1X1X1X1X1X1X1X1X1X1X",
"1X1X1X1X1X1X1X1X1X1X1X1X1X1X1X1X1X1X1X1Xs b ` z.^.).{.~.!.n.y.r.r.r.l.M.^.~.Q.Y.h.U l 8 1X1X1X1X1X1X1X1X1X1X1X1X1X1X1X1X1X1X1X1X",
"1X1X1X1X1X1X1X1X1X1X1X1X1X1X1X1X1X1Xd Y h./.{.^.j.:.$.R U R U K U U H H U R %.g.^.).W.r.D i 1X1X1X1X1X1X1X1X1X1X1X1X1X1X1X1X1X1X",
"1X1X1X1X1X1X1X1X1X1X1X1X1X1X1X1Xd ! T.}.{.z.$.I U =.l.l.-.A.A.>.] l.R g.r.} ,.&.Q ` g.^.~.c.P q 1X1X1X1X1X1X1X1X1X1X1X1X1X1X1X1X",
"1X1X1X1X1X1X1X1X1X1X1X1X1X1Xq P I. X[.2.Y ! 2.;.} <.~.h.' z.G.h.f.W.&.M.z.,.Q.{.~.c.O.U <.G.(.l.C 3 1X1X1X1X1X1X1X1X1X1X1X1X1X1X",
"1X1X1X1X1X1X1X1X1X1X1X1X1Xk >.{.{.k.! ` c.E.F.f.,.] Y.=.Y >.Y.h.,.m.` M.t.z.W.~.~.W.(.l.[ / ;.W.^.>.i 1X1X1X1X1X1X1X1X1X1X1X1X1X",
"1X1X1X1X1X1X1X1X1X1X1X1XZ L..X!.$.J ) a.G.F.G.!.1.h.Y.` r.>.=.P.k.>.0.m.&.,.r.Y.W.G.n.U R =.] [ c./.c.x 1X1X1X1X1X1X1X1X1X1X1X1X",
"1X1X1X1X1X1X1X1X1X1X1XY '. Xk.Y -.t.K ;.A.D.F.A.:.O.M.<.m.M.m.Q.!.A.A.E.h.-.q.G.W.F.,.,.E.&.q.t.[ 0.W.M.Z 1 1X1X1X1X1X1X1X1X1X1X",
"1X1X1X1X1X1X1X1X1X1X! ].{.*.I @.[ ] ' C i.b.D.b.r.c.H.H.F.W.E.E.G.E.G.W.~.G.W.^.G.F.3.n.~.n.,.J } -.-.A.A.I 1 1X1X1X1X1X1X1X1X1X",
"1X1X1X1X1X1X1X1X1XU {.[.$.U t.a.;./ q.&.;.Z.Z.b.F.D.a.2.;.W  .y.M.(.|.{.~.E.A.Q.~.F.h.*.>.g.$.2.0.;.0.&.m.A.H < 1X1X1X1X1X1X1X1X",
"1X1X1X1X1X1X1X1XP (.|.$./ } ] Q e.Q  .a.v.Z.D.Z.y...W z S Q r.E.]. XOX@XOX|.~.~.!.F.G.M.h.r.$.W.l.&.y.0.-.M.Y.Z 1X1X1X1X1X1X1X1X",
"1X1X1X1X1X1X1XM ^. X$.( ] ;.A.] ..2.q.d.d.Z.d.) N W =...h.P.z.!.|.OXOX%X&X&X%X+XW.G.E.~.W.m.%.&.U O.=.} 9.[ m.Y.M 1X1X1X1X1X1X1X",
"1X1X1X1X1X1Xm L. X4.` A.] Q c.<. .s.Z.D.d.d.W j S @.y.1.D n J t.^.{.XXOX&X&X-X;X@X!.G.W.E.G.v.,.&.0.t.m.t.} ] Y.z.s 1X1X1X1X1X1X",
"1X1X1X1X1X1X>.oXK.U t.0.a.<.$.:.a.d.s.s.b.W , t x ..' y j _ y.v.^.].|.OX%X*X*X-X@X!.G.G.W.E.^.G.,.r.~.M.] ;.] 0.!.=.3 1X1X1X1X1X",
"1X1X1X1X1XP {.[.Y 9.] %.;.t.t.C.Z.d.s.s.;.; , y S Q g D q.u.c.v.m.E.(.XXOX%X*X-X+XT.[.[.G.G.G.~.Y.l.,.U ] 9.0.} c.P.N 1X1X1X1X1X",
"1X1X1X1Xd I.oX:.} t.r.:.] U w.C.p.Z.Z.d.G ; r r b j J ..o.a.Z.G.Q.(.(.(.{.XX%X-X=X'.`.&X{.F.G.W.~.m./ ;.&.' W @.O.Y.0.q 1X1X1X1X",
"1X1X1X1X#.oXU.[ d.C.Z.x.` 5.C.Z.v.Z.C.v.j 6 r 7 u J ) w.v.D.G.Q.(.(.W.Q.(.{.OX:X>X@XXX=X=X!.D.F.W.W.v.h.P W h.w.( t.A.J 1X1X1X1X",
"1X1X1Xm P.XX0.p.A.s.C.a.O.s.C.Z.G.Z.s.q.; g h y ^ X.u.C.G.H.H.E.Y.(.A.A./.{.%X>X<X:X&X:X>X+XZ.d.D.G.E.y.,.A.W.y.5.[ A.0.9 1X1X1X",
"1X1X1X!  X!.-.C.B.d.C.Z.Z.Z.Z.A.A.Z.A.] > I :._ 5.7.s.F.~.~.~.(.).(.W.Y.Q.].@X;X<X:X@X>X>X&XF.b.A.Z.A.A.F.E.F.A.Z.+.g.m.C 1X1X1X",
"1X1Xd n.oX,.p.Z.B.d.C.Z.A.S.A.E.b.F.W.) u 3.3.y.7.7.d.G.~.).).{.).}.(.(.W./.OX=X,X;XR.,X;X&XF.d.A.A.Z.Z.F.D.b.D.A.l.} A.-.0 1X1X",
"1X1XZ ).`.} C.C.A.d.Z.G.D.F.G.Z.A.A.Z.@.^ x.' i.7.w.d.Q.{..X.X X}.}.(.(./.).XXOXOX&XK.#X;X+XM.d.b.S.Z.Z.b.Z.d.d.A.Z.} l.v.x 1X1X",
"1X1X=. XK.9.Z.s.d.C.Z././.~.G.v.F.A.b.;.W y.&.t.@.s.F.Q.`.[.~.{..X}.}.).).}.{.|.XXOXn.R.&X|.M.d.v.C.d.C.F.D.b.D.S.Z.8.;.m.Q 1X1X",
"1Xd L. X=.p.B.C.C.d.A.H.~.G.G.G.F.A.Z.O.) t.x.7.w.C.F.(.~.~.Q.W.(.{.{.(.~.].].].XX$Xx.k.|.`.D.d.B.C.d.b.b.b.b.Z.Z.Z.a.{ m.-.8 1X",
"1XN [.[.} C.d.s.V.Z.A.Q.W.G.~.W.F.W.W.O.^ u.a.7.7.Z.F.F./.).~.Q.(.].].).~.}.OXOXXX|.2.O.M.M.a.d.V.b.d.d.d.Z.s.d.C.C.m.} a.t.d 1X",
"1XU  XK.o.V.p.s.B.A.Q.Q.G.W.F.A.G.G.c. .b W @.7.@.) b b N h.{.{.].{.{.}.(.Y.j.K.K.~.r.W ;.M.d.d.C.s.d.d.Z.Z.b.b.d.s.C.6.y.c.C 1X",
"1X>. X3.0.Z.s.b.Z.W./.Q.W.^.C.A.G.i...@.z h W @.b + X o : W )..X{.Q.}.).} : + & = ' i._ e.~.G.b.d.d.s.s.C.d.Z.Z.d.s.s.w.;.v.H 1X",
"1Xk.oX%.w.A.Z.d.A.G.H./.W.A.Z.E.G.q.<.c.z y ) @.r . g  .) ) y.E.~.W.W.} 7 r M k $ t y._ ;.*.x.D.Z.b.Z.b.C.s.Z.C.a.v.d.e.} M.[ 1X",
"d m..XU i.^.G.b.W.A.H.G.A.Z.E.Z.b.y.a.^. .n X.e.W N c.&.W g y n G.).) * 7 H 9.i.W N !.q.2.e 2.Z.v.Z.Z.M.P.A.m.C.s.C.V.p.] m.} 0 ",
"m A.{.I Z.(.~.W.G.S.Q.A.A.A.C.C.d.b.r.Y.O.<.a.a.Z.7.b , . $ ; b E.}.b o * * @ 7 D ! #X[.] t a.A.Z.A.C.i.y.h.v.C.s.C.C.w.{ c.+.q ",
"M ^.`.P A.|.).W.A.G.G.S.A.W.C.Z.Z.Z.h.7...n.b.d.G.y.n.y.W b n @.^.W.S 6 L K C K ! j.+X'.Q F Z.G.!.G.E.c.y.y.m.A.Z.A.m.8.( a.+.q ",
"M ^.'.D G.|.~.G.Q.G.G.G.G.Z.Z.Z.A.Z.y.@.2.~.a.a.b.~.{.{.E.e.X.A.G.m.L h X.w.s.m.[.XX$Xk.j y.A.F.x.n.L.c.n.m.P.P.K.U.v.w.( l.9.s ",
"N W.'.S E.XX`.H.G.H.G.G.G.A.A.b.M.D.i.v.) x.e.u.v.F.~.A.b.b.~.G.v.i.G b ..@.@.u.m.^.~.N l E.F.F.;.y.x.y.w.y.a.;.e.h.m.w.~ a.;.s ",
"N ^.`.F G.$X{.E.F.F.D.G.G.G.G.A.Z.F.a.Z.m.a.7.a.G.(.oXXXW.W.Q.s.5.+.e.` W b.G.G.G.~.y.W 3.W.F.W.M.n.K.T.m.m.N.c.N.m.d.7.~ a.+.p ",
"m T.[.F Z.oX{.H.D.G.D.D.D.G.G.G.F.D.b.M.).).7.e.G.].oX|.@.=.s.@.o.@.i.I.x W M.)..X(.<.=.'.G.F.W.F.y.e.7.e.t.h.i.y.A.b.@./ v.} 9 ",
"g n.|.W a.$X.XH.H.G.S.S.D.A.A.D.Z.Z.Z.Z.W.!.7.8.d.W.W...j @.u.7.c.i.a.z.#., ) G.A.A.a.'.W.G.G.F.F.b.b.y.i.w.l.u.a.F.a.o.[ v.E 3 ",
"1Xg..X#.2. X|.H.F.W.F.Y.F.E.E.E.!.m.M.M.D.l.@.e.a.Z.X.y ..v.w.@.e.^ b y t * r @._ @.w.N.b.F.Z.F.F.F.D.D.d.d.d.a.A.Q.i.| -.a.T 1X",
"1X>..X>...Q.!.F.a.y.i.h.c.t.h.r.f.h.z.b.d.e.X.u.u.w.j ;.d.s.A.a.W 4 > 4 , , : v S _ @.a.Z.b.D.Z.S.F.Z.Z.D.d.d.d.A.~.t.( -.p.b 1X",
"1XY ).n.W A.T.b.u.7.w.7.a.o.7.u.8.u.X.s.b.w.~ w.u.@.C S G ..y.7.^ ^ S V r 7 r e B G a.d.d.Z.D.F.S.Z.d.d.v.b.D.F.G.W.6.E t.6.f 1X",
"1XM ~.`.N a.P.N.s.e.u.7.e.5.7.u.e.u.5.s.Z.@.W o.7.i.q.B W g v W W W B r $ & > b _ b v.d.b.b.b.F.A.d.d.d.d.s.v.Z.W.m.6.( a.| w 1X",
"1Xd n. XU 9.|.{.H.D.D.D.a.s.s.V.d.d.d.d.r.n W _ X.7.b...a.2.C F b j v > * r b e.L B d.Z.D.F.D.b.S.V.s.s.d.b.b.Z.~.a.o.} s.T 1X1X",
"1X1X%..XK.U ). XH.D.D.D.V.s.s.V.s.d.d.d.n F ) 9.W X.w...Z.d.7.a.e...) b e z B X.y ^ d.d.b.b.F.D.D.V.s.s.b.Z.F.W.~.w.( 0.p.c 1X1X",
"1X1XZ ~.'.D A. X{.D.D.b.d.V.s.V.d.d.d.) + F ..a.t.~ _ @.Z.d.u.m.d.8.X.B 7 y S z y i.d.d.d.b.b.D.A.C.V.Z.C.Z.Z.~.M.6.( y.o.q 1X1X",
"1X1Xs t._.$.@..X$X/.D.d.d.s.V.V.d.d.7.-   a y.u.D.7.^ @.D.Z.d.A.b.7.~ b 7 b b e ) Z.d.d.d.D.b.b.A.V.Z.Z.C.C.M.A.i.O.-.v.T 1X1X1X",
"1X1X1XU /.E.H ^.$X XF.D.V.d.d.s.b.a.e     - g.a.d.b...~ a.A.Z.A.G.e.o.S G ..j b s.d.a.s.d.Z.D.D.S.Z.b.Z.v.v.G.c.6.E l.w.u 1X1X1X",
"1X1X1Xa v.}.$.+.{.$X/.D.S.Z.d.d.e.y         P b.s.s.o.W ..b.b.Z.F.e.e.7.8.W W i.d.d.s.d.d.d.b.F.C.Z.Z.C.C.Z.A.w.| { s.L 3 1X1X1X",
"1X1X1X1XI _.E.D b. X XH.S.V.b._ 6           ; i.A.a.7...W o.d.s.a.a.7.W S W q.d.Z.d.b.d.s.d.s.Z.d.Z.C.b.A.Q.y.6.E l.6.u 1X1X1X1X",
"1X1X1X1Xq t.).:.W (.oX}.G.d.n o               F A.d.u.o...X.@.^ W ..b r e W x n W 7.b.Z.D.b.d.b.F.b.s.b.Q.m.9.{ ;.p.V 1 1X1X1X1X",
"1X1X1X1X1XM Q.~.P 9.{.$X{.F.W @               $ -.Z.M.e.@.e.8.W , , j ..I f.e > o $ t S o.i.Z.S.F.A.D.E.Y.w.( } c.| 5 1X1X1X1X1X",
"1X1X1X1X1X1X] _.m.A v..XoX,.t.) #               g Z.C.m.r.9.5.^ e v .. .,.y.> 4 > X     @ , n 2.F.F.W.E.w.+.E m.p.h 1X1X1X1X1X1X",
"1X1X1X1X1X1Xi t./.f.H A.r.Q &.E.<.,             @  .S.C.d.t. .b y z b Q M.a.* ; 6 $ X       2 q.Q.W.~.a.6.E t.s.T = 1X1X1X1X1X1X",
"1X1X1X1X1X1X1Xf v.).=.Q k.P.[.:.<.I.g .           e i.b.d.D.i.n y y N c.b.u.; @ 6 : +   . j i.W.E.M.M.q.E 9.C.K = 1X1X1X1X1X1X1X",
"1X1X1X1X1X1X1X1Xk A.(.] ` ~.g.D &.^.l.U ;         . W s.b.b.D.` 2 2 Q d.s.s.e   $ > * 7 [ v.-.!.j.g.m.( 0.C.~ ; 1X1X1X1X1X1X1X1X",
"1X1X1X1X1X1X1X1X1Xb A./.=.! z.` T.I.F h.a.S 1 .     6 m.Z.C.s.l     & Q Z.d.F   o y ) i.t.Y.P =.M.m.R 0.v.o.5 1X1X1X1X1X1X1X1X1X",
"1X1X1X1X1X1X1X1X1X1XM b.(.,.I x.'.` Y '.=.r.m.` g > # &.d.Z.O.@     X -  .D.;.x ] t.y.M.%.L.j.,.r./ t.C.{ 5 1X1X1X1X1X1X1X1X1X1X",
"1X1X1X1X1X1X1X1X1X1X1Xl a./.u.H =.3.k.I.P k.z.0.M.k.,.2.Z.Z.! , : e g b =.b.D.h.E.2.! N.n.&.Y.;.) l.s.^ 5 1X1X1X1X1X1X1X1X1X1X1X",
"1X1X1X1X1X1X1X1X1X1X1X1Xp -.J.C./ P K.z.$.!.f.I.f.U K.m.;.P.n.m.i.l.q.h.Q.(.~.*.,.j.! g.Y.r.E -.s.p.H : 1X1X1X1X1X1X1X1X1X1X1X1X",
"1X1X1X1X1X1X1X1X1X1X1X1X1X2 H C.J.l.U ` z.!.:.'.>.1.f.U.Z K.,.` ,.3.! 1.|.|.|.x.Q P.r.;./ &.c.C.6.c = 1X1X1X1X1X1X1X1X1X1X1X1X1X",
"1X1X1X1X1X1X1X1X1X1X1X1X1X1X1Xa -././.t.R U ,.P.>.>.!.g.A I.3.H %.'.:.n.`.)./.N.,.O.R } v.A.a.L 0 1X1X1X1X1X1X1X1X1X1X1X1X1X1X1X",
"1X1X1X1X1X1X1X1X1X1X1X1X1X1X1X1X< n 9.W.(.A.<.` U &.g.k.f.Y.g.y.h.W.2.g.y.@.) Q ] ,.M.W.s./ u % 1X1X1X1X1X1X1X1X1X1X1X1X1X1X1X1X",
"1X1X1X1X1X1X1X1X1X1X1X1X1X1X1X1X1X1X< x O.Z./.(.Y.t.&.` U J U U J I U ` ` &.h.A.W.G.t.K v = 1X1X1X1X1X1X1X1X1X1X1X1X1X1X1X1X1X1X",
"1X1X1X1X1X1X1X1X1X1X1X1X1X1X1X1X1X1X1X1X= i A <.M./._.(.Q.Y.M.m.m.A.!.Q.Q.G.M.t.[ c 5 % 1X1X1X1X1X1X1X1X1X1X1X1X1X1X1X1X1X1X1X1X",
"1X1X1X1X1X1X1X1X1X1X1X1X1X1X1X1X1X1X1X1X1X1X1X< 9 x T / } 9.t.y.t.0.;.] K b a 6 % 1X1X1X1X1X1X1X1X1X1X1X1X1X1X1X1X1X1X1X1X1X1X1X",
"1X1X1X1X1X1X1X1X1X1X1X1X1X1X1X1X1X1X1X1X1X1X1X1X1X1X1X1X= 1 8 0 0 3 < = % 1X1X1X1X1X1X1X1X1X1X1X1X1X1X1X1X1X1X1X1X1X1X1X1X1X1X1X"
};
