/* XPM */
static char *ec6bbb7b379d4cc381938d52b6d5c62b[] = {
/* columns rows colors chars-per-pixel */
"32 32 117 2 ",
"   c #010100",
".  c #0A0805",
"X  c #120E0A",
"o  c #1A150D",
"O  c #231E14",
"+  c #292214",
"@  c #2A2418",
"#  c #372C19",
"$  c #3B311E",
"%  c #4C3E25",
"&  c #463A24",
"*  c #54452B",
"=  c #5C4A2D",
"-  c #534327",
";  c #655333",
":  c #6B5535",
">  c #6D5937",
",  c #745D3C",
"<  c #765F37",
"1  c #644E33",
"2  c #7C653D",
"3  c #76613C",
"4  c #745F40",
"5  c #7B6543",
"6  c #7D6848",
"7  c #846C44",
"8  c #866C46",
"9  c #8C734A",
"0  c #8C7246",
"q  c #91774B",
"w  c #957B4B",
"e  c #9A7F4D",
"r  c #937746",
"t  c #8E7653",
"y  c #947B52",
"u  c #9B7E53",
"i  c #9C8153",
"p  c #9D835A",
"a  c #9F814B",
"s  c #A4864F",
"d  c #A28553",
"f  c #A68955",
"g  c #AA8B55",
"h  c #A68A5B",
"j  c #AB8D5C",
"k  c #A58659",
"l  c #AD905C",
"z  c #B39255",
"x  c #B3925C",
"c  c #BA955C",
"v  c #BC9A5E",
"b  c #A88C62",
"n  c #B49562",
"m  c #B79865",
"M  c #BC9A64",
"N  c #B2966A",
"B  c #B79A69",
"V  c #BB9D6A",
"C  c #B99762",
"Z  c #BFA16E",
"A  c #BFA272",
"S  c #C19C62",
"D  c #C09E68",
"F  c #C5A264",
"G  c #CAA564",
"H  c #CDA865",
"J  c #C3A36C",
"K  c #CAA66A",
"L  c #CBA96C",
"P  c #D2AD6B",
"I  c #D1AB67",
"U  c #D7B16D",
"Y  c #DCB46E",
"T  c #C3A572",
"R  c #C6A874",
"E  c #CCAB73",
"W  c #CBAD79",
"Q  c #C5A775",
"!  c #D0AE73",
"~  c #CFB17D",
"^  c #D4B274",
"/  c #DBB673",
"(  c #DEB873",
")  c #D4B47C",
"_  c #D9B77A",
"`  c #DDBA7B",
"'  c #E0B86F",
"]  c #E2BB74",
"[  c #E3BE7A",
"{  c #E6C17C",
"}  c #E9C37D",
"|  c #E8C076",
" . c #D3B681",
".. c #D6B984",
"X. c #DCBD82",
"o. c #DCBF8B",
"O. c #E1BE80",
"+. c #DEC18B",
"@. c #E5C282",
"#. c #EAC582",
"$. c #EDC985",
"%. c #EDCB8B",
"&. c #E5C589",
"*. c #F1CD8C",
"=. c #F4D18E",
"-. c #F1CF90",
";. c #EED29D",
":. c #F5D394",
">. c #F4D59A",
",. c #ECCC92",
"<. c #F7DBA8",
"1. c #EED9B2",
"2. c #FAE3B9",
"3. c #F9E6C3",
"4. c #FEE8C1",
"5. c #FBEED7",
"6. c None",
/* pixels */
"6.6.6.6.6.6.6.6.6.6.6.6.t p b b h i y 6 6.6.6.6.6.6.6.6.6.6.6.6.",
"6.6.6.6.6.6.6.6.6.6.B R W E J M C B Z J J b 6 6.6.6.6.6.6.6.6.6.",
"6.6.6.6.6.6.6.6.A ~ R B n R J L D V J W E L R l 6.6.6.6.6.6.6.6.",
"6.6.6.6.6.6.b ) R C ^ _ Z J m W R L T ` &.K l J R y 6.6.6.6.6.6.",
"6.6.6.6.6.N ..m l l / [ L _ / ` { @._ ` { T E C M E p 6.6.6.6.6.",
"6.6.6.6.N  .l C l v U ( L l l E ,.>.:.%.@.^ T V D S ! p 6.6.6.6.",
"6.6.6.b ..V n M M Y / d a l h R :.<.2.2.,.@.[ J n J C K t 6.6.6.",
"6.6.6...V C M J Y / a - 9 0 s U &.>.2.4.;.%.#.@.! J C M T 6.6.6.",
"6.6.Q  .K J x Y ] U ; % 2 f U { $.$.>.4.2.<.;.{ O.D f v J h 6.6.",
"6.6.o.E ' ' U ] [ S : 9 z Y $.$.%.#.*.3.5.3.3.[ [ ] _ ` F J , 6.",
"6.T  .Y ' ] } [ { F p J G | =.:.:.*.*.<.2.1.2.[ ] ] [ [ / K k 6.",
"6. .! Y ' } $.} { K v F P $.-.%.:.=.:.;.;. .;.] ' ] ] ' ] G M 6.",
"p o.L Y ] #.#.} { J s M v g T *.=.=.@...o.V ^ ] ' / ] ' / I D 5 ",
"N  .P ' [ $.} } ^ v 2 s * * r X.*.) 4 = > C J ( ' ' ' ] Y P G q ",
"J E _ #.[ } [ ] Y ^ j F l q * 3 O.> % 5 y  .y L [ / ^ ] ' P D u ",
"Q Q @.%.} } [ ] ( K L Y [ ^ g l [ 2 w k  .o.d ` _ _ ! _ _ P S u ",
"R R &.%.} } } [ [ U P I @.:.{ [ G d c ( $.B Z @.! ^ ! ! ^ L M i ",
"Z R @.=.} | | | [ { @.H } _ l H G J 8 E @.E { { ` ! P P ( G S w ",
"N W ^ %.( / / ^ ^ / U F I a F P a ; & > g P ( | | | Y Y [ S v 7 ",
"p  .M X.P H G G H I H z F i i s r : # = w P ( | | Y Y | [ c c 6.",
"6.) Z %.} ] ' Y Y Y i s z F F g s > % 0 r Y ] | ] Y ] [ / c g 6.",
"6.Z E X.=.| ' ' ( r & F F c ( ( I r ; < g ' ( | ] ' ] [ K S 0 6.",
"6.6.) Z >.} ' ' f O X m Y z H | Y z a s Y Y ' ] ] ] ' ^ c c 6.6.",
"6.6.M R _ :.| 7 o     ; ( v z F c r 0 i v Y ] ] ] ] [ S v 8 6.6.",
"6.6.6.^ V %.X.5 X     X l Y F s = q h % + $ , C [ #.K S g 6.6.6.",
"6.6.6.y ! V R E i @     % U Y i ; f K $ # . + l @.U c c 1 6.6.6.",
"6.6.6.6.i E Z B W b : o . i ] f O 7 P & # 2 M T ! S S : 6.6.6.6.",
"6.6.6.6.6.i P V V A Z B 8 p / 5 + * G m m J E D D C , 6.6.6.6.6.",
"6.6.6.6.6.6.8 F F V Q ~ A W Z V B Z %._ Z V J D g : 6.6.6.6.6.6.",
"6.6.6.6.6.6.6.6.h K T T m A V m J T ) R V G S 9 6.6.6.6.6.6.6.6.",
"6.6.6.6.6.6.6.6.6.6.i J E R J J T J J J n 9 6.6.6.6.6.6.6.6.6.6.",
"6.6.6.6.6.6.6.6.6.6.6.6.4 9 y i y q 5 ; 6.6.6.6.6.6.6.6.6.6.6.6."
};
