/* XPM */
static char *_25689d350644c57eb0af646480c21f2[] = {
/* columns rows colors chars-per-pixel */
"16 16 201 2 ",
"   c #0E0C07",
".  c #372D1A",
"X  c #3C311E",
"o  c #3B3221",
"O  c #4F422A",
"+  c #614F2F",
"@  c #675636",
"#  c #735D36",
"$  c #79633D",
"%  c #776444",
"&  c #7C6740",
"*  c #836B41",
"=  c #836C42",
"-  c #816C46",
";  c #876F44",
":  c #856F49",
">  c #8E7148",
",  c #8E764B",
"<  c #917749",
"1  c #93754B",
"2  c #97774C",
"3  c #977B4A",
"4  c #957B4C",
"5  c #997E4E",
"6  c #9C7F4D",
"7  c #967B51",
"8  c #9F834F",
"9  c #9D8150",
"0  c #9F8454",
"q  c #A78453",
"w  c #A18355",
"e  c #A18655",
"r  c #A68853",
"t  c #AB8C55",
"y  c #A38658",
"u  c #A2875C",
"i  c #A5895B",
"p  c #A78B5E",
"a  c #A78B5F",
"s  c #A98D5A",
"d  c #AD8F5A",
"f  c #A98C5D",
"g  c #AC8E5F",
"h  c #AD8F5F",
"j  c #B08C57",
"k  c #B28F5A",
"l  c #B19158",
"z  c #B19259",
"x  c #B7965A",
"c  c #B7965B",
"v  c #B2925E",
"b  c #B5925D",
"n  c #B4935F",
"m  c #B3955F",
"M  c #B6965D",
"N  c #B6975F",
"B  c #B9985E",
"V  c #BD9B5E",
"C  c #BF9D5F",
"Z  c #A78E61",
"A  c #AD8F60",
"S  c #AF9160",
"D  c #AF9263",
"F  c #AF9266",
"G  c #B09262",
"H  c #B19362",
"J  c #B29462",
"K  c #B59660",
"L  c #B99761",
"P  c #B79865",
"I  c #B49866",
"U  c #B59967",
"Y  c #B79A67",
"T  c #BD9960",
"R  c #B99965",
"E  c #BB9A65",
"W  c #B99A66",
"Q  c #B99B67",
"!  c #BC9B64",
"~  c #BD9B65",
"^  c #BD9D65",
"/  c #BF9D67",
"(  c #B39868",
")  c #B5996D",
"_  c #B89A6A",
"`  c #B89B6B",
"'  c #BA9C6A",
"]  c #BC9E6A",
"[  c #B89D6C",
"{  c #BA9E70",
"}  c #BA9E72",
"|  c #BFA16E",
" . c #C09D5F",
".. c #C09D66",
"X. c #C3A062",
"o. c #C1A065",
"O. c #C7A364",
"+. c #C7A266",
"@. c #C7A465",
"#. c #CAA665",
"$. c #C8A566",
"%. c #C0A06B",
"&. c #C1A16B",
"*. c #C1A26A",
"=. c #C4A36B",
"-. c #C7A66A",
";. c #C1A16C",
":. c #C0A26C",
">. c #C1A26E",
",. c #C3A36E",
"<. c #C5A46D",
"1. c #C7A76F",
"2. c #C8A66B",
"3. c #CFAB6A",
"4. c #CCAB6C",
"5. c #D1AB6A",
"6. c #D1AB6D",
"7. c #D1AC6C",
"8. c #D0AC6D",
"9. c #D3AF6D",
"0. c #D1AD6E",
"q. c #D2AE6E",
"w. c #D2AF6F",
"e. c #D4AF6E",
"r. c #D7B06D",
"t. c #D6B06F",
"y. c #DFB66D",
"u. c #C1A471",
"i. c #C2A572",
"p. c #C6A772",
"a. c #C1A474",
"s. c #C8A771",
"d. c #C7A975",
"f. c #CAA971",
"g. c #CBAB71",
"h. c #C8A974",
"j. c #C8A976",
"k. c #CEAD74",
"l. c #CFAE79",
"z. c #D2AF70",
"x. c #D4B171",
"c. c #D6B270",
"v. c #D8B370",
"b. c #D9B371",
"n. c #DAB671",
"m. c #D8B472",
"M. c #D8B473",
"N. c #DAB572",
"B. c #DDB670",
"V. c #D8B374",
"C. c #D8B575",
"Z. c #D8B677",
"A. c #DCB877",
"S. c #DEBA77",
"D. c #D2B378",
"F. c #D4B378",
"G. c #D5B57B",
"H. c #D8B87B",
"J. c #DAB87A",
"K. c #DAB97B",
"L. c #DDB978",
"P. c #DFBC7D",
"I. c #E0B871",
"U. c #E1B971",
"Y. c #E0B972",
"T. c #E0B973",
"R. c #E1BA72",
"E. c #E2BB73",
"W. c #E1BB75",
"Q. c #E2BC75",
"!. c #E4BC75",
"~. c #E4BD75",
"^. c #E4BE77",
"/. c #E4BE78",
"(. c #E2BF7F",
"). c #E4BE7C",
"_. c #E5C07A",
"`. c #E7C27B",
"'. c #E8C27B",
"]. c #E9C37D",
"[. c #E9C47C",
"{. c #E9C47E",
"}. c #E8C47F",
"|. c #E2C083",
" X c #E6C586",
".X c #E8C685",
"XX c #EEC987",
"oX c #E6C588",
"OX c #E7C68A",
"+X c #E7C78E",
"@X c #F2CE8F",
"#X c #F5D08F",
"$X c #ECCC92",
"%X c #EDCE95",
"&X c #F1D198",
"*X c #F6D69B",
"=X c #EDD4A8",
"-X c #F7DBA9",
";X c #FAE0B2",
":X c #F7E3BE",
">X c None",
/* pixels */
">X>X>X>X>XF _ P S S a >X>X>X>X>X",
">X>X>X) | f.,.1.<.k.k.L a >X>X>X",
">X>X{ ] L v.-.g.OXOXK.| ^ h >X>X",
">X{ >.! 5.8 4 ^ &X;X$XK.<.E u >X",
">Xl.8.e.3.$ t ).XX-X:X%Xn.2.! >X",
"a.V.!.].w.K n.@X#X*X=X+XT.W.e.y ",
"j.b.'.{.8.r < | |.Z P z.U.T.e.v ",
"j.(.{./.e.^ m 0 s = ` *.A.C.e.b ",
"d. X[._.L.n.P.w.M K F.C.C.x.e.l ",
"i.K.n.w.x.#.c l * + B _.E.T.6.q ",
"Y G.`.y.V 6  .@.6 # T ~.T.W.+.2 ",
">Xp..X@.X O +.#.l 3 X.B.T.x.j >X",
">XS k.Y o   9 c ; & . , S.T >X>X",
">X>Xh | ( % - d @ e : E ..1 >X>X",
">X>X>Xw E p.i._ Y D.*.K > >X>X>X",
">X>X>X>X>Xi J G G f 7 >X>X>X>X>X"
};
